# xmcd
#
# Track frame offsets: 
#        150
#        16217
#        30430
#        46107
#        56142
#        67885
#        82125
#        96582
#        111560
#        130032
#        144125
#        158227
#        174484
#        189497
#        209765
#        224842
#        237555
#        253427
#
# Disc length: 3602 seconds
#
# Revision: 0
# Processed by: cddbd v1.5.2PL0 Copyright (c) Steve Scherf et al.
# Submitted via: ExactAudioCopy v0.95b4
#
DISCID=130e1012
DTITLE=Various Artist - Chicago Blues At Home
DYEAR=1977
DGENRE=Blues
TTITLE0=Louis Myers - Going Back To The Ghetto
TTITLE1=John Littlejohn - Mean Old World
TTITLE2=Eddie Taylor - Greyhound Bus
TTITLE3=Louis Myers - Stop Breaking Down
TTITLE4=Bob Myers - Train Fare Home
TTITLE5=Jimmy Rogers - Ludella
TTITLE6=Johnny Shines - Ramblin'
TTITLE7=John Littlejohn - The Moon Is Rising
TTITLE8=Homesick James Williamson - Tell Me Who
TTITLE9=Louis Myers - Short Haired Woman
TTITLE10=Jimmy Rogers - Back Door Friend
TTITLE11=Bob Myers - Right Kind Of Life
TTITLE12=John Littlejohn - Slidin'
TTITLE13=Louis Myers - Mean Red Spider
TTITLE14=Louis Myers - Just A Snap Boogie
TTITLE15=Jimmy Rogers - What Have I Done
TTITLE16=Eddie Taylor - Jackson Town
TTITLE17=Eddie Taylor - Tell Me Baby
EXTD=
EXTT0=
EXTT1=
EXTT2=
EXTT3=
EXTT4=
EXTT5=
EXTT6=
EXTT7=
EXTT8=
EXTT9=
EXTT10=
EXTT11=
EXTT12=
EXTT13=
EXTT14=
EXTT15=
EXTT16=
EXTT17=
PLAYORDER=
